<svg width="18" height="24" viewBox="0 0 18 24" fill="none" xmlns="http://www.w3.org/2000/svg">
<g clip-path="url(#clip0_76_58)">
<path fill-rule="evenodd" clip-rule="evenodd" d="M9.11062 0.120106L8.94277 0.0232258C8.88907 -0.007731 8.82307 -0.00774262 8.76937 0.0231951L8.60145 0.120017C3.4616 3.08341 0 8.62965 0 14.9816V23.8261C0 23.9222 0.077754 24 0.173669 24H17.5383C17.6342 24 17.7119 23.9222 17.7119 23.8261V15.3688C17.7135 15.3006 17.7142 15.2323 17.7142 15.1637V14.9909L17.7131 14.9898L17.7119 14.9886V14.9839C17.7119 8.63197 14.2503 3.08581 9.11062 0.120106ZM8.34577 5.75357C8.34577 5.89212 8.19142 5.97577 8.07315 5.9039C7.15483 5.34586 6.1207 4.95662 5.01517 4.77971C4.87964 4.75802 4.81595 4.59663 4.90544 4.49243C5.83225 3.41315 6.8995 2.4574 8.079 1.65341C8.193 1.5757 8.34577 1.65833 8.34577 1.79644V5.75357ZM9.63555 5.80165C9.51727 5.87029 9.36615 5.78642 9.36615 5.6495V1.79691C9.36615 1.65878 9.519 1.57615 9.633 1.65391C10.8022 2.45138 11.861 3.39784 12.7822 4.46579C12.8731 4.57114 12.8068 4.73469 12.6691 4.75399C11.5762 4.90723 10.5509 5.27053 9.63555 5.80165ZM12.1797 10.9141C12.0991 11.0602 11.8667 11.0317 11.8231 10.8706C11.4444 9.4698 10.7077 8.21452 9.7167 7.20616C9.6405 7.12863 9.65002 7.00055 9.74025 6.94003C10.8629 6.1871 12.205 5.73415 13.6518 5.69666C13.7089 5.69518 13.763 5.72273 13.7958 5.76965C14.2219 6.37952 14.6068 7.02005 14.9466 7.68727C14.9863 7.7652 14.9608 7.86022 14.8891 7.9101C13.7704 8.68755 12.8399 9.7161 12.1797 10.9141ZM2.7976 7.95187C2.72761 7.90155 2.70319 7.80802 2.74208 7.73107C3.08571 7.05094 3.4762 6.39837 3.90931 5.77756C3.943 5.72927 3.99911 5.70156 4.05786 5.70465C5.44207 5.77737 6.72471 6.22408 7.80532 6.9439C7.8957 7.0041 7.90567 7.13202 7.82985 7.20984C6.85375 8.21228 6.127 9.4581 5.74997 10.8476C5.70622 11.0088 5.47327 11.0368 5.39317 10.8902C4.75575 9.72397 3.8656 8.7192 2.7976 7.95187ZM6.47965 13.0392C6.47965 11.002 7.31161 9.15765 8.65657 7.8264C8.7219 7.76175 8.8266 7.76152 8.89222 7.82587C10.25 9.1578 11.0895 11.0029 11.0895 13.0392V22.5245C11.0895 22.6016 11.0389 22.6697 10.9647 22.6903C10.2946 22.8762 9.5883 22.9756 8.85832 22.9756C8.07337 22.9756 7.31575 22.8607 6.60119 22.6469C6.52864 22.6252 6.47965 22.5579 6.47965 22.4821V13.0392ZM16.6873 14.6097C16.6895 14.7066 16.6114 14.7858 16.5146 14.7858H12.301C12.2018 14.7858 12.1226 14.7026 12.1297 14.6035C12.2956 12.2672 13.492 10.2133 15.272 8.89245C15.361 8.82645 15.4872 8.86305 15.5287 8.9658C16.2346 10.7162 16.6419 12.6185 16.6873 14.6097ZM1.19728 14.7858C1.10056 14.7858 1.02238 14.7066 1.02457 14.6098C1.06929 12.6378 1.46879 10.7532 2.16189 9.01695C2.20356 8.91255 2.3323 8.87632 2.42116 8.94502C4.12987 10.2661 5.27877 12.2959 5.43983 14.6037C5.44675 14.7027 5.36755 14.7858 5.26843 14.7858H1.19728ZM5.45929 21.9284C5.45929 22.0565 5.32588 22.1403 5.21261 22.0808C2.95279 20.8951 1.34551 18.6419 1.06432 15.9959C1.05358 15.8948 1.13361 15.8077 1.23512 15.8077H5.28562C5.38153 15.8077 5.45929 15.8857 5.45929 15.9817V21.9284ZM12.3534 22.1575C12.2403 22.2139 12.1099 22.1299 12.1099 22.0035V15.9817C12.1099 15.8857 12.1876 15.8077 12.2835 15.8077H16.4792C16.5807 15.8077 16.6607 15.8948 16.65 15.9959C16.3628 18.7001 14.6913 20.9941 12.3534 22.1575ZM1.19403 22.978C1.09812 22.978 1.02036 22.9001 1.02036 22.804V19.9825C1.02036 19.8012 1.27437 19.7345 1.37158 19.8874C2.07238 20.9896 3.0111 21.9263 4.11553 22.6259C4.26874 22.7229 4.20229 22.978 4.021 22.978H1.19403ZM16.6915 22.804C16.6915 22.9001 16.6138 22.978 16.5179 22.978H13.6949C13.5136 22.978 13.4472 22.7229 13.6004 22.6259C14.703 21.9273 15.6403 20.9922 16.3405 19.892C16.4377 19.7392 16.6915 19.8059 16.6915 19.9871V22.804Z" fill="white"/>
</g>
<defs>
<clipPath id="clip0_76_58">
<rect width="18" height="24" fill="white"/>
</clipPath>
</defs>
</svg>
