<svg width="24" height="24" viewBox="0 0 24 24" fill="none" xmlns="http://www.w3.org/2000/svg">
<g clip-path="url(#clip0_75_18)">
<path d="M22.248 17.5535H10.7712C10.3776 17.5535 10.056 17.2319 10.056 16.8383C10.056 16.4447 10.3776 16.1231 10.7712 16.1231H21.9744V5.04466H10.7712C10.3776 5.04466 10.056 4.72306 10.056 4.32946C10.056 3.93586 10.3776 3.61426 10.7712 3.61426H22.248C22.8864 3.61426 23.4048 4.13266 23.4048 4.77106V16.3967C23.4048 17.0351 22.8864 17.5535 22.248 17.5535Z" fill="white"/>
<path d="M14.1744 5.04466C13.7808 5.04466 13.4592 4.72306 13.4592 4.32946V0.79186C13.4592 0.39826 13.7808 0.0766602 14.1744 0.0766602C14.568 0.0766602 14.8896 0.39826 14.8896 0.79186V4.32946C14.8896 4.72306 14.568 5.04466 14.1744 5.04466Z" fill="white"/>
<path d="M18.7776 23.9234C18.5232 23.9234 18.2784 23.789 18.1488 23.549L14.712 17.1794C14.5248 16.8338 14.6544 16.397 15 16.2098C15.3456 16.0226 15.7824 16.1522 15.9696 16.4978L19.4064 22.8674C19.5936 23.213 19.464 23.6498 19.1184 23.837C19.0128 23.8946 18.8928 23.9234 18.7776 23.9234Z" fill="white"/>
<path d="M1.31041 23.923C0.916815 23.923 0.595215 23.6014 0.595215 23.2078V10.4926C0.595215 8.97579 1.82881 7.74219 3.34561 7.74219H14.5248C14.9184 7.74219 15.24 8.06379 15.24 8.45739C15.24 8.85099 14.9184 9.17259 14.5248 9.17259H3.35041C2.62081 9.17259 2.03041 9.76779 2.03041 10.4926V23.2078C2.03041 23.6014 1.70881 23.923 1.31521 23.923H1.31041Z" fill="white"/>
<path d="M7.21435 23.923C6.82075 23.923 6.49915 23.6014 6.49915 23.2078V8.45739C6.49915 8.06379 6.82075 7.74219 7.21435 7.74219C7.60795 7.74219 7.92955 8.06379 7.92955 8.45739V23.2078C7.92955 23.6014 7.60795 23.923 7.21435 23.923Z" fill="white"/>
<path d="M4.85276 6.58093C3.15836 6.58093 1.78076 5.20333 1.78076 3.50893C1.78076 1.81453 3.15836 0.432129 4.85276 0.432129C6.54716 0.432129 7.92476 1.80973 7.92476 3.50413C7.92476 5.19853 6.54716 6.57613 4.85276 6.57613V6.58093ZM4.85276 1.85773C3.94556 1.85773 3.20636 2.59693 3.20636 3.50413C3.20636 4.41133 3.94556 5.15053 4.85276 5.15053C5.75996 5.15053 6.49916 4.41133 6.49916 3.50413C6.49916 2.59693 5.75996 1.85773 4.85276 1.85773Z" fill="white"/>
</g>
<defs>
<clipPath id="clip0_75_18">
<rect width="24" height="24" fill="white"/>
</clipPath>
</defs>
</svg>
