<svg width="24" height="24" viewBox="0 0 24 24" fill="none" xmlns="http://www.w3.org/2000/svg">
<path d="M19.6704 23.9377H5.87998C4.41118 23.9377 3.21118 22.7425 3.21118 21.2689V2.4865C3.21598 1.1521 4.30078 0.0625 5.63998 0.0625H17.5968C18.2496 0.0625 18.7776 0.5905 18.7776 1.2433V2.5201H19.6416C20.2704 2.5201 20.784 3.0337 20.784 3.6625V22.8241C20.784 23.4385 20.2848 23.9377 19.6704 23.9377ZM5.63998 1.2817C4.97278 1.2817 4.43518 1.8241 4.43518 2.4865V21.2689C4.43518 22.0657 5.08318 22.7185 5.88478 22.7185H19.5744V3.7393H17.568V1.2817H5.63998Z" fill="white"></path>
<path d="M17.5104 18.9313H5.0304V0.6721C5.0304 0.3361 5.304 0.0625 5.64 0.0625C5.976 0.0625 6.2496 0.3361 6.2496 0.6721V17.7169H17.5104C17.5392 17.7169 17.5584 17.6929 17.5584 17.6689V3.1297C17.5584 2.7937 17.832 2.5201 18.168 2.5201C18.504 2.5201 18.7776 2.7937 18.7776 3.1297V17.6641C18.7776 18.3649 18.2112 18.9313 17.5104 18.9313Z" fill="white"></path>
<path d="M3.82078 22.1808C3.48478 22.1808 3.21118 21.9072 3.21118 21.5712V20.784C3.21118 19.0896 4.58878 17.7168 6.27838 17.7168H7.30558C7.64158 17.7168 7.91518 17.9904 7.91518 18.3264C7.91518 18.6624 7.64158 18.936 7.30558 18.936H6.27838C5.25598 18.936 4.42558 19.7664 4.42558 20.7888V21.576C4.42558 21.912 4.15198 22.1856 3.81598 22.1856L3.82078 22.1808Z" fill="white"></path>
<path d="M15.2352 7.5649H8.62083C8.28483 7.5649 8.01123 7.2913 8.01123 6.9553C8.01123 6.6193 8.28483 6.3457 8.62083 6.3457H15.2352C15.5712 6.3457 15.8448 6.6193 15.8448 6.9553C15.8448 7.2913 15.5712 7.5649 15.2352 7.5649Z" fill="white"></path>
<path d="M16.2768 9.78707H7.57444C7.23844 9.78707 6.96484 9.51347 6.96484 9.17747C6.96484 8.84147 7.23844 8.56787 7.57444 8.56787H16.272C16.608 8.56787 16.8816 8.84147 16.8816 9.17747C16.8816 9.51347 16.608 9.78707 16.272 9.78707H16.2768Z" fill="white"></path>
<path d="M17.1408 21.437H6.71043C6.37443 21.437 6.10083 21.1634 6.10083 20.8274C6.10083 20.4914 6.37443 20.2178 6.71043 20.2178H17.136C17.472 20.2178 17.7456 20.4914 17.7456 20.8274C17.7456 21.1634 17.472 21.437 17.136 21.437H17.1408Z" fill="white"></path>
<path d="M16.2768 5.34713H7.57444C7.23844 5.34713 6.96484 5.07353 6.96484 4.73753C6.96484 4.40153 7.23844 4.12793 7.57444 4.12793H16.272C16.608 4.12793 16.8816 4.40153 16.8816 4.73753C16.8816 5.07353 16.608 5.34713 16.272 5.34713H16.2768Z" fill="white"></path>
</svg>