<svg width="24" height="24" viewBox="0 0 24 24" fill="none" xmlns="http://www.w3.org/2000/svg">
<mask id="mask0_75_2" style="mask-type:luminance" maskUnits="userSpaceOnUse" x="1" y="0" width="22" height="24">
<path d="M22.4496 0.0336914H1.55042V23.9665H22.4496V0.0336914Z" fill="white"></path>
</mask>
<g mask="url(#mask0_75_2)">
<path d="M14.8321 15.9505C14.8321 16.1185 14.6977 16.2529 14.5345 16.2529H9.49926C9.32166 16.2529 9.17286 16.1041 9.17286 15.9217V12.0769H10.1665C10.5745 12.0769 10.9009 11.7457 10.9009 11.3329C10.9009 10.9201 10.5745 10.5841 10.1665 10.5841H9.17286V7.45929H10.1665C10.5745 7.45929 10.9009 7.12329 10.9009 6.71049C10.9009 6.29769 10.5745 5.96649 10.1665 5.96649H9.17286V1.93449C9.17286 1.70889 9.35526 1.52649 9.57606 1.52649H14.6257C14.7361 1.52649 14.8273 1.61769 14.8273 1.73289V5.97129H13.8337C13.4257 5.97129 13.0993 6.30249 13.0993 6.71529C13.0993 7.12809 13.4257 7.46409 13.8337 7.46409H14.8273V10.5889H13.8337C13.4257 10.5889 13.0993 10.9249 13.0993 11.3377C13.0993 11.7505 13.4257 12.0817 13.8337 12.0817H14.8273V15.9553L14.8321 15.9505ZM14.6257 0.0336914H9.57606C8.53926 0.0336914 7.69446 0.888091 7.69446 1.93449V15.9217C7.69446 16.9249 8.50566 17.7409 9.49446 17.7409H9.70566V23.2177C9.70566 23.6305 10.0369 23.9665 10.4449 23.9665C10.8529 23.9665 11.1793 23.6305 11.1793 23.2177V17.7409H12.8161V23.2177C12.8161 23.6305 13.1425 23.9665 13.5505 23.9665C13.9585 23.9665 14.2897 23.6305 14.2897 23.2177V17.7409H14.5249C15.5041 17.7409 16.2961 16.9393 16.2961 15.9505V1.73289C16.2961 0.796891 15.5473 0.0336914 14.6161 0.0336914" fill="white"></path>
<path d="M19.2432 15.8882C19.056 15.8882 18.864 15.8163 18.72 15.6723C18.432 15.3795 18.432 14.909 18.72 14.6162C18.9504 14.381 20.9856 12.245 20.9712 9.44185C20.9616 7.76185 20.208 6.16345 18.7248 4.69465C18.432 4.40665 18.4272 3.93625 18.7152 3.63865C18.9984 3.34585 19.4688 3.34105 19.7568 3.62905C21.5328 5.38585 22.4352 7.33945 22.4448 9.43225C22.464 12.7682 20.2128 15.2114 19.7616 15.6674C19.6176 15.8114 19.4304 15.8834 19.2384 15.8834" fill="white"></path>
<path d="M4.75681 15.8882C4.56961 15.8882 4.37761 15.8163 4.23361 15.6723C3.78241 15.2163 1.53122 12.773 1.55042 9.43225C1.56002 7.33945 2.46721 5.38585 4.23841 3.62905C4.53121 3.34105 4.99681 3.34585 5.28001 3.63865C5.56321 3.93145 5.55841 4.40665 5.27041 4.69465C3.78721 6.16345 3.03362 7.75705 3.02402 9.44185C3.00962 12.245 5.04481 14.381 5.27521 14.6162C5.56321 14.909 5.56321 15.3795 5.27521 15.6723C5.13121 15.8163 4.94401 15.8882 4.75201 15.8882" fill="white"></path>
</g>
</svg>