<svg width="24" height="24" viewBox="0 0 24 24" fill="none" xmlns="http://www.w3.org/2000/svg">
<path d="M10.5638 16.0664L13.7963 12.961C15.6616 12.5259 17.4178 11.7128 18.9563 10.5719L19.8071 9.89015C21.9207 8.05526 23.362 5.56793 23.9034 2.82171C23.9496 2.58949 23.7987 2.36349 23.5665 2.31726C23.5174 2.30749 23.4671 2.30638 23.4178 2.31393C22.0989 2.59349 20.8285 3.06571 19.6471 3.71549L18.8769 4.16193C15.9718 5.92149 13.9638 8.84549 13.3647 12.1886L10.7407 14.715C10.226 15.2106 9.81492 15.8035 9.53092 16.459L9.15981 17.3166L10.5638 16.0662V16.0664ZM19.1814 9.35349C17.9491 10.3984 16.5354 11.2077 15.0107 11.7413L20.9263 5.79993C21.0887 5.63015 21.0827 5.36082 20.9129 5.19838C20.7478 5.0406 20.4878 5.04104 20.3234 5.19971L14.5238 11.0246C15.9258 6.52504 19.4371 4.26104 22.9176 3.29593C22.3303 5.65371 21.0245 7.7706 19.1814 9.35371V9.35349ZM3.00337 4.6506C3.00803 4.41238 2.81626 4.21704 2.57803 4.21704H1.3647C1.12981 4.21682 0.93959 4.02638 0.939368 3.79171V2.91526C0.939812 2.51593 1.26337 2.1926 1.6627 2.19215C2.8147 2.19749 3.77737 3.07104 3.89426 4.21704L3.90492 5.06793V19.7595C3.81448 21.1739 5.10248 22.7393 6.35959 22.6553C6.36359 22.6613 21.4218 22.651 21.4287 22.6553C22.6194 22.6539 23.5843 21.689 23.5856 20.4984V19.805C23.5851 19.3353 23.2045 18.9546 22.7347 18.9542H19.9487C19.8603 18.247 19.8131 17.5353 19.8078 16.8226V11.7502C19.8078 11.3977 19.4105 11.1922 19.1227 11.3955C19.0076 11.477 18.9391 11.6093 18.9391 11.7504C18.9398 13.1302 18.9454 15.2457 18.9491 16.5175C18.9514 17.2348 18.9894 17.9513 19.0634 18.6646L19.0934 18.9542H8.33381C7.86403 18.9546 7.48337 19.3353 7.48292 19.805C7.46959 20.303 7.59426 21.1062 7.15003 21.4762C6.05937 22.4753 4.66381 21.0057 4.75603 19.7595V4.64238C4.81337 3.72215 4.45803 2.82393 3.7867 2.19193H16.4214C17.1734 2.19415 17.8605 2.52793 18.3267 3.06815C18.4678 3.23171 18.7107 3.26015 18.8889 3.13815C19.1 2.99371 19.1389 2.69704 18.9709 2.50393C18.3427 1.78238 17.4216 1.34215 16.4216 1.34082H1.66248C0.79359 1.34171 0.0893679 2.04593 0.0882568 2.91482V3.79126C0.0889235 4.49593 0.660035 5.06682 1.36448 5.06749H2.57781C2.80959 5.06749 2.9987 4.88193 3.00315 4.65038L3.00337 4.6506ZM22.7343 20.4984C22.7336 21.2193 22.1491 21.8037 21.4283 21.8044H7.98092C8.39981 21.279 8.3387 20.4399 8.33314 19.805H22.7343V20.4984Z" fill="white"></path>
<path d="M6.26022 22.7467C5.74578 22.7467 5.21378 22.4967 4.75044 22.0349C4.12489 21.4114 3.76711 20.5385 3.81622 19.7567V5.06782L3.80578 4.22204C3.69156 3.11982 2.77067 2.28537 1.662 2.28026C1.31267 2.28071 1.02778 2.5656 1.02733 2.91537V3.7916C1.02756 3.97715 1.17889 4.12849 1.36467 4.12871H2.578C2.71711 4.12871 2.84733 4.18337 2.94467 4.28271C3.042 4.38204 3.09422 4.51337 3.09156 4.65226C3.08622 4.93004 2.85578 5.15604 2.578 5.15604H1.36467C0.612889 5.15537 0.000888889 4.54315 0 3.7916V2.91515C0.00111111 1.99937 0.746667 1.25382 1.66222 1.25293H16.4207C17.424 1.25426 18.3776 1.68937 19.0367 2.44626C19.1331 2.55693 19.1776 2.70404 19.1589 2.85004C19.1402 2.99649 19.0596 3.12804 18.938 3.21115C18.7209 3.3596 18.4291 3.32293 18.2591 3.12582C17.7971 2.59049 17.1271 2.28226 16.4204 2.28026H3.998C4.59111 2.91826 4.89733 3.76849 4.84356 4.64515V19.7627V19.766C4.79111 20.4745 5.258 21.2978 5.88422 21.6014C6.182 21.7458 6.63289 21.83 7.09 21.4112L7.09311 21.4085C7.42022 21.1358 7.40711 20.5718 7.39667 20.1187C7.394 20.0065 7.39156 19.9003 7.39422 19.8038C7.39533 19.2872 7.81644 18.8665 8.33333 18.866H18.9951L18.9751 18.6738C18.9011 17.9603 18.8624 17.2349 18.8604 16.5178C18.8569 15.3389 18.8511 13.1518 18.8504 11.7505C18.8504 11.5809 18.9329 11.4214 19.0713 11.3236C19.2313 11.2105 19.4391 11.196 19.6133 11.2863C19.7876 11.3765 19.8958 11.5543 19.8958 11.7503V16.8227C19.9009 17.5027 19.9449 18.1898 20.0264 18.866H22.7344C23.2518 18.8665 23.6731 19.2878 23.6736 19.8052V20.4987C23.6722 21.7354 22.6651 22.7425 21.4284 22.7438H21.4024L21.402 22.7436C21.1033 22.742 18.0549 22.7432 14.8349 22.7443C12.8087 22.7449 10.6904 22.7456 9.07822 22.7458C8.27222 22.7458 7.59267 22.7458 7.11444 22.7456C6.87533 22.7456 6.68667 22.7452 6.55756 22.7449C6.49289 22.7449 6.44333 22.7447 6.40978 22.7445C6.39244 22.7445 6.37778 22.7445 6.36511 22.7436C6.33022 22.746 6.29533 22.7472 6.26022 22.7472V22.7467ZM1.66222 2.10382C2.86289 2.10937 3.85978 3.01404 3.98156 4.20804L3.982 4.21582L3.99267 5.06671V19.7623V19.7652C3.94578 20.4985 4.284 21.3205 4.87511 21.91C5.32667 22.3603 5.86556 22.5998 6.35333 22.5672L6.40422 22.5638L6.40667 22.5676C6.88244 22.57 11.096 22.5687 14.8347 22.5676C16.5482 22.5669 18.1958 22.5665 19.4153 22.5663C20.0251 22.5663 20.528 22.5663 20.8784 22.5663C21.0538 22.5663 21.1909 22.5663 21.2844 22.5667C21.3611 22.5667 21.4029 22.5667 21.4278 22.5683V22.5674C22.5671 22.566 23.4953 21.638 23.4964 20.4987V19.8054C23.496 19.3854 23.1538 19.0432 22.7338 19.0427H19.87L19.8602 18.9654C19.7716 18.2576 19.724 17.5369 19.7187 16.8236V11.7505C19.7187 11.6187 19.6487 11.5038 19.5316 11.4432C19.4144 11.3825 19.2802 11.3918 19.1727 11.4678C19.0811 11.5327 19.0262 11.6383 19.0264 11.7507C19.0271 13.1518 19.0329 15.3387 19.0364 16.5176C19.0384 17.2289 19.0769 17.9483 19.1502 18.6558L19.1904 19.0427H8.33289C7.91289 19.0432 7.57067 19.3854 7.57022 19.8054V19.8076C7.56778 19.9 7.57022 20.0043 7.57267 20.1147C7.584 20.6052 7.59822 21.2154 7.20733 21.5427C6.794 21.9205 6.29667 21.9978 5.80689 21.7603C5.11067 21.4227 4.61044 20.5429 4.66711 19.7565V4.6396V4.63693C4.72289 3.74004 4.37978 2.87226 3.72533 2.25626L3.56333 2.10382H16.4204C17.1784 2.10604 17.8971 2.43649 18.3924 3.01071C18.5038 3.1396 18.6953 3.16315 18.838 3.0656C18.9182 3.01071 18.9711 2.92404 18.9836 2.8276C18.9958 2.7316 18.9667 2.63493 18.9033 2.56226C18.2778 1.8436 17.3727 1.43071 16.4202 1.4296H1.66244C0.844 1.43049 0.177333 2.09693 0.176444 2.91537V3.79182C0.177111 4.44626 0.710222 4.97915 1.36467 4.97982H2.578C2.76044 4.97982 2.91156 4.83137 2.91511 4.64915C2.91689 4.55782 2.88267 4.4716 2.81867 4.40649C2.75467 4.34137 2.66933 4.30537 2.578 4.30537H1.36467C1.08178 4.30493 0.851333 4.07471 0.851111 3.79182V2.91515C0.851778 2.46826 1.21578 2.10426 1.66267 2.10382H1.66222ZM21.4282 21.8927H7.79756L7.91178 21.7494C8.26933 21.3009 8.25733 20.58 8.24756 20.0009C8.24644 19.9343 8.24533 19.8689 8.24489 19.8058L8.24422 19.7169H22.8224V20.4987C22.8216 21.2667 22.1962 21.892 21.4282 21.8929V21.8927ZM8.14911 21.7163H21.4282C22.0989 21.7156 22.6451 21.1692 22.646 20.4985V19.8934H8.42244C8.42289 19.9278 8.42356 19.9627 8.42422 19.998C8.43356 20.5498 8.44467 21.224 8.14911 21.7163ZM8.92 17.6485L9.45 16.4243C9.74 15.7545 10.1536 15.158 10.6793 14.6518L13.2827 12.1452C13.8922 8.78982 15.9133 5.85382 18.8309 4.08671L19.6027 3.63937C20.7942 2.98404 22.0709 2.50937 23.3993 2.22782L23.4042 2.22693C23.464 2.21782 23.5242 2.21915 23.5836 2.23093C23.8633 2.28649 24.0456 2.55937 23.9898 2.83915C23.7184 4.21515 23.2244 5.52849 22.5211 6.74204C21.8178 7.9556 20.924 9.03737 19.8649 9.95693L19.8622 9.95915L19.0087 10.6429C17.4578 11.7929 15.7189 12.5998 13.8398 13.0416L10.6222 16.1325L8.91978 17.6487L8.92 17.6485ZM23.4336 2.40093C22.1231 2.67893 20.8633 3.14737 19.6896 3.79293L18.9209 4.23849C16.0398 5.98337 14.0458 8.88715 13.4513 12.2045L13.4462 12.2327L10.8016 14.7789C10.2927 15.2689 9.89222 15.846 9.61178 16.4945L9.39933 16.9854L10.5038 16.0018L13.7527 12.8809L13.7762 12.8754C15.6402 12.4407 17.3649 11.6423 18.9024 10.5023L19.7507 9.82271C20.7944 8.91626 21.6753 7.85004 22.3687 6.6536C23.0622 5.45693 23.5496 4.16204 23.8169 2.80493C23.8536 2.62049 23.7336 2.44071 23.5493 2.40404C23.5111 2.39649 23.472 2.39537 23.4336 2.40115V2.40093ZM14.6767 11.9518L20.8636 5.73782C20.9247 5.67404 20.9578 5.58849 20.9558 5.49849C20.9538 5.40849 20.9169 5.32449 20.8518 5.26226C20.7204 5.13671 20.5153 5.13715 20.3844 5.26315L14.3324 11.3416L14.4396 10.9983C15.0947 8.89604 16.2538 7.13604 17.8847 5.76715C19.2627 4.61049 20.9482 3.75026 22.8942 3.21071L23.04 3.17026L23.0033 3.31693C22.7089 4.49915 22.2351 5.62426 21.5956 6.66137C20.956 7.69826 20.1631 8.62671 19.2389 9.42048L19.2384 9.42093C17.9933 10.4767 16.5807 11.2856 15.0398 11.8247L14.6767 11.9518ZM20.6191 4.99182C20.7469 4.99182 20.8742 5.03937 20.9738 5.13471C21.0729 5.2296 21.1291 5.35737 21.1322 5.49449C21.1353 5.6316 21.0847 5.76182 20.9898 5.86093L15.354 11.5214C16.7298 10.9932 17.9964 10.2425 19.1238 9.28649C20.0342 8.50449 20.8151 7.59026 21.4451 6.56871C22.0484 5.59049 22.5018 4.53271 22.794 3.42226C20.9347 3.95715 19.3218 4.79115 17.998 5.90226C16.4853 7.17204 15.3849 8.78426 14.7236 10.6987L20.2607 5.13737C20.3613 5.04026 20.4902 4.99182 20.6191 4.99182Z" fill="white"></path>
<path d="M6.85875 7.96319H13.0919C13.3267 7.95875 13.5136 7.76475 13.5094 7.52986C13.5052 7.30119 13.3207 7.11675 13.0919 7.1123H6.85875C6.62386 7.11697 6.43719 7.31119 6.44186 7.5463C6.44652 7.77475 6.63052 7.95875 6.85875 7.96319Z" fill="white"></path>
<path d="M6.85873 8.05126H6.85695C6.58028 8.0457 6.35917 7.82459 6.35362 7.54793C6.35095 7.41082 6.40162 7.28059 6.49673 7.1817C6.59184 7.08281 6.71962 7.02681 6.85695 7.02393H13.0918C13.3709 7.02904 13.5923 7.25059 13.5976 7.52793C13.6029 7.81126 13.3767 8.04593 13.0936 8.05126H6.85873ZM6.85962 7.87481H13.0918C13.2761 7.87126 13.4245 7.71726 13.4212 7.53126C13.4178 7.34904 13.2723 7.2037 13.0903 7.20037H6.85873C6.7705 7.20215 6.6865 7.23904 6.62406 7.30393C6.56162 7.36881 6.52828 7.45437 6.53006 7.54437C6.53362 7.7257 6.6785 7.87081 6.85962 7.87481Z" fill="white"></path>
<path d="M6.85863 10.3802H12.2315C12.4664 10.3757 12.6535 10.1817 12.6491 9.94685C12.6448 9.71796 12.4604 9.53352 12.2315 9.5293H6.85863C6.62374 9.53396 6.43707 9.72819 6.44174 9.9633C6.4464 10.1917 6.6304 10.3757 6.85863 10.3802Z" fill="white"></path>
<path d="M6.85861 10.4683H6.85684C6.58017 10.4627 6.35906 10.2416 6.3535 9.96492C6.34772 9.68181 6.57372 9.4467 6.85684 9.44092H12.2315C12.5106 9.44603 12.7322 9.66758 12.7373 9.94492C12.7397 10.082 12.6888 10.212 12.5935 10.3109C12.4984 10.4098 12.3704 10.4656 12.2331 10.468H6.85839L6.85861 10.4683ZM6.8595 10.2918H12.2315C12.4157 10.2883 12.5642 10.1343 12.5608 9.94825C12.5575 9.76603 12.4122 9.6207 12.2299 9.61736H6.85861C6.67439 9.62114 6.52617 9.77536 6.52995 9.96136C6.5335 10.1427 6.67839 10.2878 6.8595 10.2918Z" fill="white"></path>
<path d="M6.85873 12.7962H10.5074C10.7423 12.7933 10.9305 12.6004 10.9276 12.3653C10.9247 12.1344 10.7383 11.948 10.5074 11.9453H6.85873C6.62384 11.95 6.43695 12.144 6.44161 12.3791C6.44606 12.6075 6.63028 12.7918 6.85873 12.7962Z" fill="white"></path>
<path d="M6.85871 12.8845H6.85693C6.57982 12.8792 6.35871 12.6579 6.35337 12.381C6.34782 12.0979 6.57382 11.8628 6.85693 11.8574H10.5072C10.7892 11.861 11.012 12.0836 11.0156 12.3645C11.0192 12.6479 10.7916 12.8812 10.5083 12.8848H6.85848L6.85871 12.8845ZM6.85959 12.7081H10.5074C10.6923 12.7059 10.8416 12.5525 10.8394 12.3668C10.8371 12.1823 10.6907 12.0361 10.5063 12.0339H6.85871C6.67448 12.0374 6.52626 12.1916 6.52982 12.3776C6.53337 12.5592 6.67826 12.7043 6.85959 12.7083V12.7081Z" fill="white"></path>
</svg>